<svg xmlns="http://www.w3.org/2000/svg" xmlns:xlink="http://www.w3.org/1999/xlink" width="500" zoomAndPan="magnify" viewBox="0 0 375 374.999991" height="500" preserveAspectRatio="xMidYMid meet" version="1.0"><defs><clipPath id="8af357aea8"><path d="M 8.222656 41 L 366.722656 41 L 366.722656 375 L 8.222656 375 Z M 8.222656 41 " clip-rule="nonzero"/></clipPath></defs><path fill="#fbb13c" d="M 209.039062 120.671875 L 165.902344 120.671875 C 135.375 120.671875 110.460938 145.679688 110.460938 176.148438 L 110.460938 200.84375 L 264.480469 200.84375 L 264.480469 176.148438 C 264.480469 145.601562 239.566406 120.671875 209.039062 120.671875 Z M 209.039062 120.671875 " fill-opacity="1" fill-rule="evenodd"/><path fill="#fbd1a2" d="M 187.433594 47.964844 C 166.285156 47.964844 149.214844 65.121094 149.214844 86.203125 C 149.214844 107.363281 166.363281 124.441406 187.433594 124.441406 C 208.578125 124.441406 225.648438 107.285156 225.648438 86.203125 C 225.726562 65.042969 208.578125 47.964844 187.433594 47.964844 Z M 187.433594 47.964844 " fill-opacity="1" fill-rule="evenodd"/><path fill="#dd6e42" d="M 113.078125 152.910156 L 69.863281 152.910156 C 39.335938 152.910156 14.421875 177.839844 14.421875 208.386719 L 14.421875 233.082031 L 168.441406 233.082031 L 168.441406 208.386719 C 168.515625 177.839844 143.605469 152.910156 113.078125 152.910156 Z M 113.078125 152.910156 " fill-opacity="1" fill-rule="evenodd"/><path fill="#fbd1a2" d="M 91.46875 80.203125 C 70.324219 80.203125 53.253906 97.359375 53.253906 118.441406 C 53.253906 139.523438 70.402344 156.679688 91.46875 156.679688 C 112.617188 156.679688 129.6875 139.523438 129.6875 118.441406 C 129.6875 97.359375 112.617188 80.203125 91.46875 80.203125 Z M 91.46875 80.203125 " fill-opacity="1" fill-rule="evenodd"/><path fill="#73d2de" d="M 305.003906 152.910156 L 261.789062 152.910156 C 231.261719 152.910156 206.347656 177.839844 206.347656 208.386719 L 206.347656 233.082031 L 360.441406 233.082031 L 360.441406 208.386719 C 360.519531 177.839844 335.527344 152.910156 305.003906 152.910156 Z M 305.003906 152.910156 " fill-opacity="1" fill-rule="evenodd"/><path fill="#fbd1a2" d="M 283.472656 80.203125 C 262.328125 80.203125 245.257812 97.359375 245.257812 118.441406 C 245.257812 139.523438 262.402344 156.679688 283.472656 156.679688 C 304.617188 156.679688 321.6875 139.523438 321.6875 118.441406 C 321.6875 97.359375 304.542969 80.203125 283.472656 80.203125 Z M 283.472656 80.203125 " fill-opacity="1" fill-rule="evenodd"/><path fill="#d1e7fe" d="M 35.183594 211.695312 L 147.832031 211.695312 L 147.832031 334.335938 L 35.183594 334.335938 Z M 35.183594 211.695312 " fill-opacity="1" fill-rule="evenodd"/><path fill="#fbd1a2" d="M 184.355469 238.007812 C 167.515625 267.707031 173.976562 272.554688 145.296875 289.632812 L 177.050781 344.648438 L 183.894531 340.722656 C 203.273438 329.488281 206.808594 339.03125 225.957031 327.949219 C 239.71875 320.027344 245.792969 316.488281 264.019531 305.945312 C 274.707031 299.789062 273.015625 283.554688 258.867188 283.324219 C 268.246094 276.015625 261.019531 262.703125 251.253906 263.398438 C 256.714844 255.320312 250.484375 244.546875 240.796875 245.238281 L 291.007812 216.234375 C 296.46875 213.078125 298.390625 206 295.238281 200.535156 L 294.3125 199 C 291.160156 193.535156 284.085938 191.613281 278.628906 194.765625 L 219.882812 228.542969 C 210.730469 233.851562 197.042969 215.464844 184.355469 238.007812 Z M 184.355469 238.007812 " fill-opacity="1" fill-rule="evenodd"/><path fill="#dd6e42" d="M 144.449219 288.324219 L 177.28125 345.183594 C 179.4375 348.878906 178.128906 353.726562 174.4375 355.878906 L 154.828125 367.191406 C 151.140625 369.34375 146.292969 368.035156 144.140625 364.34375 L 111.308594 307.484375 C 109.15625 303.792969 110.460938 298.945312 114.152344 296.789062 L 133.761719 285.480469 C 137.527344 283.25 142.375 284.554688 144.449219 288.324219 Z M 144.449219 288.324219 " fill-opacity="1" fill-rule="evenodd"/><g clip-path="url(#8af357aea8)"><path fill="#000000" d="M 184.355469 347.492188 C 185.050781 353.109375 182.28125 358.648438 177.128906 361.417969 L 157.828125 372.574219 C 151.0625 376.5 142.296875 374.039062 138.605469 367.113281 L 123.226562 340.492188 L 35.183594 340.492188 C 31.800781 340.492188 29.03125 337.722656 29.03125 334.335938 L 29.03125 239.238281 L 14.421875 239.238281 C 11.039062 239.238281 8.269531 236.46875 8.269531 233.082031 L 8.269531 208.386719 C 8.269531 178.6875 29.648438 153.449219 58.175781 147.910156 C 42.644531 130.289062 43.488281 103.667969 60.097656 87.125 C 77.476562 69.738281 105.542969 69.738281 122.917969 87.125 C 131.992188 96.207031 136.914062 108.976562 135.761719 122.519531 C 141.449219 119.289062 147.679688 116.980469 154.214844 115.671875 C 138.683594 98.050781 139.527344 71.429688 156.136719 54.8125 C 173.4375 37.5 201.582031 37.5 218.882812 54.8125 C 235.492188 71.429688 236.261719 98.050781 220.804688 115.671875 C 227.417969 116.902344 233.570312 119.289062 239.257812 122.519531 C 236.953125 96.4375 257.40625 74.125 283.472656 74.125 C 308 74.125 327.839844 94.050781 327.839844 118.519531 C 327.839844 129.828125 323.6875 140.0625 316.765625 147.910156 C 345.292969 153.449219 366.671875 178.761719 366.671875 208.386719 L 366.671875 233.082031 C 366.671875 236.46875 363.902344 239.238281 360.519531 239.238281 L 263.328125 239.238281 L 254.328125 244.46875 C 258.019531 248.316406 259.941406 253.625 259.25 259.011719 C 266.785156 262.703125 271.09375 271.628906 268.554688 279.707031 C 280.242188 286.402344 279.703125 303.945312 267.015625 311.253906 L 228.953125 333.257812 C 208.347656 345.183594 204.65625 335.796875 186.894531 346.03125 Z M 116.152344 328.179688 L 107.386719 313.023438 L 63.558594 313.023438 C 60.175781 313.023438 57.40625 310.253906 57.40625 306.867188 C 57.40625 303.484375 60.175781 300.714844 63.558594 300.714844 L 104.386719 300.714844 C 105.234375 296.867188 107.695312 293.328125 111.386719 291.328125 L 118 287.558594 L 63.558594 287.558594 C 60.175781 287.558594 57.40625 284.785156 57.40625 281.402344 C 57.40625 278.015625 60.175781 275.246094 63.558594 275.246094 L 119.304688 275.246094 C 123.535156 275.246094 126.457031 279.402344 125.148438 283.402344 L 130.683594 280.171875 C 134.144531 278.171875 138.066406 277.863281 141.605469 278.863281 L 141.605469 217.925781 L 41.335938 217.925781 L 41.335938 328.257812 L 116.152344 328.257812 Z M 171.667969 347.722656 L 139.144531 291.402344 C 138.683594 290.632812 137.605469 290.328125 136.835938 290.789062 L 117.691406 301.867188 C 116.152344 302.867188 116.074219 303.40625 116.84375 304.945312 L 131.761719 330.796875 C 131.992188 331.105469 132.144531 331.488281 132.378906 331.796875 L 149.214844 360.957031 C 149.832031 361.882812 150.675781 362.496094 151.753906 361.882812 L 170.902344 350.800781 C 172.746094 349.726562 172.285156 348.957031 171.667969 347.722656 Z M 189.664062 241.007812 C 184.894531 249.394531 182.050781 255.78125 179.742188 261.011719 C 173.898438 274.015625 170.976562 280.554688 153.984375 291.480469 L 153.984375 292.480469 L 179.28125 336.261719 C 191.277344 329.335938 196.507812 328.71875 204.578125 328.179688 C 209.578125 327.796875 214.5 327.488281 222.804688 322.640625 L 260.867188 300.636719 C 266.019531 297.636719 266.710938 289.558594 258.710938 289.480469 C 252.945312 289.402344 250.484375 282.015625 255.023438 278.476562 C 259.558594 274.9375 255.484375 269.320312 251.636719 269.550781 C 246.949219 269.9375 242.949219 264.707031 246.332031 259.703125 C 248.410156 256.550781 246.257812 251.011719 241.179688 251.316406 C 234.800781 251.78125 231.800781 242.929688 238.105469 239.621094 L 258.25 228.003906 C 258.558594 227.773438 258.945312 227.621094 259.25 227.390625 L 287.933594 210.847656 C 290.46875 209.386719 291.390625 206.078125 289.929688 203.539062 L 289.007812 202 C 287.546875 199.460938 284.164062 198.535156 281.625 200 L 222.957031 233.929688 C 210.039062 241.390625 199.8125 223.15625 189.664062 241.007812 Z M 168.515625 256.011719 C 170.976562 250.546875 173.976562 243.855469 178.972656 235.007812 C 186.046875 222.542969 193.351562 219.773438 200.273438 220.15625 L 200.273438 207 L 174.667969 207 C 174.667969 207.460938 174.667969 207.921875 174.667969 208.386719 L 174.667969 233.082031 C 174.667969 236.46875 171.898438 239.238281 168.515625 239.238281 L 153.984375 239.238281 L 153.984375 276.476562 C 162.289062 269.9375 164.59375 264.707031 168.515625 256.011719 Z M 212.578125 222.851562 C 214.421875 223.3125 215.960938 223.621094 216.730469 223.3125 L 275.476562 189.378906 C 283.855469 184.535156 294.699219 187.378906 299.621094 195.84375 L 300.542969 197.382812 C 305.386719 205.769531 302.542969 216.617188 294.082031 221.542969 L 284.703125 226.925781 L 354.445312 226.925781 L 354.445312 208.386719 C 354.445312 181.300781 332.222656 159.066406 305.15625 159.066406 L 301.621094 159.066406 C 296.082031 161.527344 290.007812 162.914062 283.550781 162.914062 C 277.089844 162.914062 271.015625 161.527344 265.480469 159.066406 L 261.941406 159.066406 C 234.875 159.066406 212.652344 181.300781 212.652344 208.386719 L 212.652344 222.851562 Z M 63.558594 261.933594 C 60.175781 261.933594 57.40625 259.164062 57.40625 255.78125 C 57.40625 252.394531 60.175781 249.625 63.558594 249.625 L 119.304688 249.625 C 122.6875 249.625 125.457031 252.394531 125.457031 255.78125 C 125.457031 259.164062 122.6875 261.933594 119.304688 261.933594 Z M 29.03125 226.925781 L 29.03125 211.695312 C 29.03125 208.308594 31.800781 205.539062 35.183594 205.539062 L 147.832031 205.539062 C 151.214844 205.539062 153.984375 208.308594 153.984375 211.695312 L 153.984375 226.925781 L 162.367188 226.925781 L 162.367188 208.386719 C 162.367188 181.300781 140.144531 159.066406 113.078125 159.066406 L 109.539062 159.066406 C 104.003906 161.527344 97.929688 162.914062 91.46875 162.914062 C 85.011719 162.914062 78.9375 161.527344 73.398438 159.066406 L 69.863281 159.066406 C 42.796875 159.066406 20.574219 181.300781 20.574219 208.386719 L 20.574219 226.925781 Z M 283.472656 86.355469 C 265.785156 86.355469 251.40625 100.746094 251.40625 118.519531 C 251.40625 136.214844 265.785156 150.601562 283.472656 150.601562 C 301.234375 150.601562 315.613281 136.214844 315.613281 118.519531 C 315.535156 100.746094 301.15625 86.355469 283.472656 86.355469 Z M 201.8125 194.691406 C 207.195312 171.300781 225.957031 152.910156 249.484375 148.0625 C 240.335938 134.984375 225.417969 126.828125 209.039062 126.828125 L 205.578125 126.828125 C 200.042969 129.289062 193.890625 130.675781 187.507812 130.675781 C 181.050781 130.675781 174.976562 129.289062 169.441406 126.828125 L 165.980469 126.828125 C 149.601562 126.828125 134.683594 134.90625 125.535156 148.0625 C 149.0625 152.910156 167.824219 171.300781 173.207031 194.691406 Z M 91.46875 86.355469 C 73.785156 86.355469 59.40625 100.746094 59.40625 118.519531 C 59.40625 136.214844 73.785156 150.601562 91.46875 150.601562 C 109.230469 150.601562 123.609375 136.214844 123.609375 118.519531 C 123.609375 100.746094 109.230469 86.355469 91.46875 86.355469 Z M 187.433594 54.121094 C 169.746094 54.121094 155.292969 68.507812 155.292969 86.203125 C 155.292969 109.4375 179.28125 125.367188 201.273438 115.132812 C 212.039062 110.132812 219.421875 98.589844 219.421875 86.203125 C 219.574219 68.507812 205.195312 54.121094 187.433594 54.121094 Z M 187.433594 54.121094 " fill-opacity="1" fill-rule="nonzero"/></g></svg>